<?xml version="1.0" encoding="UTF-8"?>
<svg id="Layer_1" xmlns="http://www.w3.org/2000/svg" version="1.1" viewBox="0 0 1368 396">
  <!-- Generator: Adobe Illustrator 30.0.0, SVG Export Plug-In . SVG Version: 2.1.1 Build 123)  -->
  <defs>
    <style>
      .st0 {
        fill-rule: evenodd;
      }

      .st0, .st1 {
        fill: #ecd1a2;
      }

      .st2 {
        fill: none;
      }
    </style>
  </defs>
  <g>
    <g>
      <path class="st1" d="M423.62,264.61c7.23,0,11.75-2.05,13.56-6.15,1.81-4.1,2.71-9.58,2.71-16.45v-100.37h-17.87c-.85-1.55-1.33-3.27-1.44-5.15-.11-1.88.11-3.66.64-5.32s1.33-3.05,2.39-4.15c1.06-1.11,2.34-1.66,3.83-1.66h12.44v-12.96c0-11.96,1.38-22.88,4.15-32.74,2.77-9.86,6.91-18.34,12.44-25.43,5.53-7.09,12.6-12.57,21.22-16.45,8.61-3.88,18.77-5.82,30.47-5.82,13.61,0,23.98,2.38,31.11,7.15,7.13,4.76,11.59,10.14,13.4,16.12,1.81,5.98,1.06,11.69-2.23,17.12-3.3,5.43-8.67,8.81-16.11,10.14-2.98-3.99-6.12-7.98-9.41-11.96-3.3-3.99-6.65-7.59-10.05-10.8s-6.86-5.93-10.37-8.14c-3.51-2.22-6.97-3.43-10.37-3.66-4.25,0-7.5,1.44-9.73,4.32-2.23,2.88-3.88,6.31-4.95,10.3-1.06,3.99-1.7,8.2-1.91,12.63s-.32,8.2-.32,11.3v38.89h34.14c.64,1.55.96,3.27.96,5.15s-.27,3.66-.8,5.32-1.28,3.05-2.23,4.15c-.96,1.11-2.18,1.66-3.67,1.66h-28.4v100.37c0,6.87.9,12.35,2.71,16.45,1.81,4.1,6.33,6.15,13.56,6.15,2.77,0,4.25,1.27,4.47,3.82s-.32,4.38-1.6,5.48h-75.94c-1.28-1.11-1.81-2.94-1.6-5.48s1.81-3.82,4.79-3.82Z"/>
      <path class="st1" d="M590.96,265.28c-.21,5.76,2.02,8.64,6.7,8.64.85,0,1.75-.06,2.71-.17s1.97-.28,3.03-.5c2.98-.66,6.49-1.44,10.53-2.33s8.14-1.77,12.28-2.66c4.15-.89,8.19-1.77,12.12-2.66s7.29-1.66,10.05-2.33c1.91-.66,2.87-1.77,2.87-3.32v-7.64c-1.91.44-3.99.94-6.22,1.5s-4.41.83-6.54.83c-2.98,0-5.42-.94-7.34-2.83-1.91-1.88-2.87-5.71-2.87-11.47l-.18-195.43c.21-5.76-2.02-8.64-6.7-8.64-.85,0-1.75.06-2.71.17s-1.97.28-3.03.5c-2.98.66-6.49,1.44-10.53,2.33-4.04.89-8.14,1.77-12.28,2.66-4.15.89-8.19,1.77-12.12,2.66-3.94.89-7.29,1.66-10.05,2.33-1.91.66-2.87,1.77-2.87,3.32v7.64c1.91-.44,3.99-.94,6.22-1.5,2.23-.55,4.41-.83,6.54-.83,2.98,0,5.42.94,7.34,2.82,1.91,1.88,2.87,5.71,2.87,11.47l.18,195.43Z"/>
      <path class="st0" d="M738.95,277.24c-10.42,0-20.05-1.77-28.88-5.32-8.83-3.55-16.54-8.53-23.13-14.96-6.59-6.43-11.75-14.35-15.47-23.76-3.72-9.42-5.58-19.89-5.58-31.41s1.86-22.16,5.58-31.91c3.72-9.75,8.88-18.17,15.47-25.26,6.59-7.09,14.3-12.63,23.13-16.62,8.83-3.99,18.45-5.98,28.88-5.98s20.05,1.77,28.88,5.32,16.49,8.53,22.97,14.96c6.49,6.43,11.59,14.29,15.32,23.6,3.72,9.31,5.58,19.83,5.58,31.57s-1.86,22.21-5.58,32.07c-3.72,9.86-8.83,18.28-15.32,25.26s-14.15,12.46-22.97,16.45c-8.83,3.99-18.45,5.98-28.88,5.98ZM744.06,264.95c4.89-.66,9.04-2.71,12.44-6.15,3.4-3.43,6.12-8.09,8.14-13.96,2.02-5.87,3.35-11.96,3.99-18.28.64-6.31.96-12.24.96-17.78,0-3.32-.11-6.65-.32-9.97-.21-5.32-.9-11.69-2.07-19.11-1.17-7.42-3.14-14.51-5.9-21.27-2.77-6.76-6.38-12.46-10.85-17.12-4.47-4.65-10.1-6.98-16.91-6.98-4.89.66-9.04,2.71-12.44,6.15s-6.12,8.09-8.14,13.96-3.35,11.96-3.99,18.28c-.64,6.31-.96,12.24-.96,17.78,0,3.32.11,6.65.32,9.97.64,8.86,1.81,17.23,3.51,25.09s3.99,14.68,6.86,20.44c2.87,5.76,6.22,10.36,10.05,13.79s8.08,5.15,12.76,5.15h2.55Z"/>
      <path class="st0" d="M913.1,277.24c-10.42,0-20.05-1.77-28.88-5.32-8.83-3.55-16.54-8.53-23.13-14.96-6.59-6.43-11.75-14.35-15.47-23.76-3.72-9.42-5.58-19.89-5.58-31.41s1.86-22.16,5.58-31.91c3.72-9.75,8.88-18.17,15.47-25.26,6.59-7.09,14.3-12.63,23.13-16.62,8.83-3.99,18.45-5.98,28.88-5.98s20.05,1.77,28.88,5.32,16.49,8.53,22.97,14.96c6.49,6.43,11.59,14.29,15.32,23.6,3.72,9.31,5.58,19.83,5.58,31.57s-1.86,22.21-5.58,32.07c-3.72,9.86-8.83,18.28-15.32,25.26s-14.15,12.46-22.97,16.45c-8.83,3.99-18.45,5.98-28.88,5.98ZM918.21,264.95c4.89-.66,9.04-2.71,12.44-6.15s6.12-8.09,8.14-13.96c2.02-5.87,3.35-11.96,3.99-18.28.64-6.31.96-12.24.96-17.78,0-3.32-.11-6.65-.32-9.97-.21-5.32-.9-11.69-2.07-19.11-1.17-7.42-3.14-14.51-5.9-21.27-2.77-6.76-6.38-12.46-10.85-17.12-4.47-4.65-10.1-6.98-16.91-6.98-4.89.66-9.04,2.71-12.44,6.15s-6.12,8.09-8.14,13.96c-2.02,5.87-3.35,11.96-3.99,18.28-.64,6.31-.96,12.24-.96,17.78,0,3.32.11,6.65.32,9.97.64,8.86,1.81,17.23,3.51,25.09,1.7,7.87,3.99,14.68,6.86,20.44,2.87,5.76,6.22,10.36,10.05,13.79s8.08,5.15,12.76,5.15h2.55Z"/>
      <path class="st0" d="M1002.36,143.63v-6.65c0-1.55,1-2.66,2.99-3.32,2.88-.66,6.37-1.44,10.47-2.33s8.36-1.77,12.8-2.66c4.43-.89,8.75-1.77,12.96-2.66s7.87-1.66,10.97-2.33c1.11-.44,2.16-.66,3.16-.66h2.83c4.87,0,7.2,2.88,6.98,8.64v30.24c2.66-5.54,5.59-10.69,8.81-15.45s6.7-8.97,10.47-12.63c3.77-3.66,7.81-6.54,12.13-8.64,4.32-2.1,8.81-3.16,13.46-3.16,6.43,0,11.63,1.72,15.62,5.15s6.7,7.59,8.14,12.46c1.44,4.87,1.38,9.97-.17,15.29s-4.65,9.86-9.31,13.63c-4.21-2.88-8.59-5.54-13.13-7.98-4.54-2.44-9.36-3.66-14.46-3.66-.44,0-.94.06-1.5.17-.55.11-1.05.17-1.5.17-5.1.44-10.36,2.83-15.79,7.15-5.43,4.32-9.69,10.36-12.8,18.11v59.49c0,6.65.94,12.08,2.83,16.29s6.59,6.31,14.13,6.31c1.55,0,2.71.33,3.49,1,.78.66,1.27,1.55,1.5,2.66.22,1.11.17,2.16-.17,3.16-.33,1-.83,1.83-1.5,2.49h-79.77c-1.33-1.11-1.83-2.99-1.5-5.65.33-2.66,1.94-3.88,4.82-3.66,7.53,0,12.3-2.16,14.29-6.48,1.99-4.32,2.99-9.8,2.99-16.45v-86.08c0-5.54-1.11-9.14-3.32-10.8-2.22-1.66-4.87-2.49-7.98-2.49-2.22,0-4.43.17-6.65.5-2.22.33-4.32.61-6.31.83Z"/>
      <path class="st0" d="M1155.38,64.19c2.6-1.27,5.71-2,9.3-2.17,3.6-.17,7.27.19,11.03,1.08,3.56.85,6.91,2.17,10.04,3.95,3.13,1.78,5.57,3.83,7.32,6.14l-28.57,52.64c-1.18.58-2.96.58-5.34.02-2.18-.52-3.86-1.35-5.05-2.5l1.27-59.16Z"/>
      <path class="st0" d="M1311.14,270.46c2.33-.42,3.5-1.96,3.65-4.29v-4.65c-.91-.43-1.75-1-2.53-1.71-1.91-1.77-2.98-5.54-3.19-11.3-.05-177.26.96-188.18,2.98-189.96,2.02-1.77,4.52-2.66,7.5-2.66,2.13,0,4.25.22,6.38.66,2.13.44,4.15.89,6.06,1.33v-7.64c0-1.55-.96-2.66-2.87-3.32-2.77-.89-6.12-1.77-10.05-2.66-3.94-.89-7.98-1.77-12.12-2.66-4.15-.89-8.19-1.72-12.12-2.49s-7.5-1.5-10.69-2.16c-1.06-.22-2.07-.39-3.03-.5s-1.86-.17-2.71-.17c-4.68,0-6.91,2.88-6.7,8.64l.05,88.08c-8.93-7.31-19.78-10.97-32.54-10.97-11.06,0-21.16,1.94-30.31,5.82-9.15,3.88-16.91,9.31-23.29,16.29s-11.33,15.45-14.84,25.43c-3.51,9.97-5.26,20.94-5.26,32.9s1.81,22.6,5.42,31.91c3.62,9.31,8.56,17.12,14.84,23.43,6.27,6.31,13.56,11.13,21.86,14.46,8.3,3.32,17.02,4.99,26.16,4.99,8.3,0,15.58-1.77,21.86-5.32,6.27-3.55,11.65-7.98,16.11-13.29v9.31c0,5.76,2.45,8.64,7.34,8.64.85,0,1.7-.06,2.55-.17.85-.11,1.81-.28,2.87-.5,2.77-.44,6.17-1.11,10.21-1.99,4.04-.89,8.24-1.77,12.6-2.66,1.29-.26,2.56-.53,3.82-.8ZM1206.02,204.79c-.64-9.31-.48-18.06.48-26.26.96-8.2,2.71-15.45,5.26-21.77,2.55-6.31,5.8-11.41,9.73-15.29,3.94-3.88,8.46-6.15,13.56-6.81.64,0,1.22-.06,1.75-.17s1.12-.17,1.75-.17c5.96,0,12.02,1.77,18.19,5.32s11.17,8.86,15,15.95v68.8c-2.34,8.86-5.48,16.73-9.41,23.6-3.94,6.87-9.41,10.75-16.43,11.63-7.02,0-12.98-1.66-17.87-4.99-4.89-3.32-8.88-7.64-11.96-12.96-3.08-5.32-5.42-11.24-7.02-17.78-1.6-6.54-2.61-12.91-3.03-19.11Z"/>
    </g>
    <g>
      <polygon class="st0" points="444.12 338.83 424.28 338.83 424.28 322.82 446.23 322.82 446.23 318.99 418.78 318.99 418.78 363.78 424.28 363.78 424.28 342.66 444.12 342.66 444.12 338.83"/>
      <polygon class="st0" points="497.56 359.95 475.03 359.95 475.03 318.99 469.54 318.99 469.54 363.78 497.56 363.78 497.56 359.95"/>
      <path class="st0" d="M517.34,341.39c.1,7.19,1.99,12.75,5.69,16.68,3.69,3.93,8.58,5.92,14.66,5.97,6.14-.05,11.06-2.04,14.74-5.97s5.57-9.49,5.67-16.68c-.09-7.19-1.98-12.75-5.67-16.68s-8.6-5.92-14.74-5.97c-6.09.05-10.97,2.04-14.66,5.97-3.69,3.93-5.59,9.49-5.69,16.68ZM522.9,341.39c.06-6.05,1.42-10.68,4.08-13.89,2.66-3.21,6.23-4.84,10.71-4.87,4.54.03,8.14,1.65,10.79,4.87,2.65,3.21,4.01,7.84,4.07,13.89-.06,6.05-1.41,10.68-4.07,13.89-2.65,3.21-6.25,4.84-10.79,4.87-4.48-.03-8.05-1.65-10.71-4.87-2.66-3.21-4.02-7.84-4.08-13.89Z"/>
      <path class="st0" d="M580.25,341.39c.1,7.19,1.99,12.75,5.68,16.68,3.69,3.93,8.58,5.92,14.66,5.97,6.14-.05,11.06-2.04,14.74-5.97s5.57-9.49,5.67-16.68c-.09-7.19-1.98-12.75-5.67-16.68s-8.6-5.92-14.74-5.97c-6.09.05-10.97,2.04-14.66,5.97-3.69,3.93-5.59,9.49-5.68,16.68ZM585.81,341.39c.06-6.05,1.42-10.68,4.08-13.89s6.23-4.84,10.71-4.87c4.54.03,8.14,1.65,10.79,4.87,2.65,3.21,4.01,7.84,4.07,13.89-.06,6.05-1.41,10.68-4.07,13.89-2.65,3.21-6.25,4.84-10.79,4.87-4.48-.03-8.05-1.65-10.71-4.87-2.66-3.21-4.02-7.84-4.08-13.89Z"/>
      <path class="st0" d="M644.96,363.78h5.5v-18.94h9.6l11.33,18.94h6.07l-12.47-19.2c3.37-.56,6.02-1.93,7.97-4.1s2.93-5.03,2.97-8.57c-.06-4.12-1.36-7.3-3.89-9.54-2.53-2.23-5.93-3.36-10.18-3.39h-16.89v44.79ZM660.89,322.82c2.95.01,5.29.8,7.02,2.36,1.73,1.56,2.61,3.8,2.65,6.73-.04,2.9-.92,5.14-2.65,6.71-1.73,1.57-4.07,2.37-7.02,2.39h-10.44v-18.18h10.44Z"/>
      <rect class="st1" x="700.12" y="318.99" width="5.5" height="44.79"/>
      <polygon class="st0" points="736.6 327.56 761.5 363.78 766.8 363.78 766.8 318.99 761.5 318.99 761.5 355.21 736.66 318.99 731.36 318.99 731.36 363.78 736.6 363.78 736.6 327.56"/>
      <path class="st0" d="M812.57,344.2h10.94v3.71c-.05,3.93-1.18,6.94-3.38,9.04-2.2,2.1-5.17,3.16-8.9,3.19-4.54-.03-8.15-1.65-10.82-4.87-2.67-3.21-4.04-7.84-4.1-13.89.06-6.05,1.43-10.68,4.09-13.89,2.66-3.21,6.25-4.84,10.77-4.87,3.51.03,6.34.98,8.48,2.84,2.14,1.86,3.24,4.43,3.3,7.72h5.43c-.1-4.49-1.71-8.01-4.84-10.56-3.13-2.55-7.21-3.85-12.24-3.89-6.18.05-11.12,2.04-14.83,5.97-3.71,3.93-5.61,9.49-5.71,16.68.1,7.19,2,12.75,5.71,16.68s8.65,5.92,14.83,5.97c2.71-.01,5.13-.56,7.24-1.66,2.11-1.1,3.78-2.67,4.98-4.73l.32,6.14h4.54v-23.42h-15.8v3.83Z"/>
      <polygon class="st0" points="881.64 346.37 891.88 346.37 891.88 356.81 895.2 356.81 895.2 346.37 905.44 346.37 905.44 343.05 895.2 343.05 895.2 332.62 891.88 332.62 891.88 343.05 881.64 343.05 881.64 346.37"/>
      <polygon class="st0" points="985.32 338.83 965.48 338.83 965.48 322.82 987.43 322.82 987.43 318.99 959.98 318.99 959.98 363.78 965.48 363.78 965.48 342.66 985.32 342.66 985.32 338.83"/>
      <rect class="st1" x="1010.73" y="318.99" width="5.5" height="44.79"/>
      <polygon class="st0" points="1047.2 327.56 1072.11 363.78 1077.41 363.78 1077.41 318.99 1072.11 318.99 1072.11 355.21 1047.27 318.99 1041.96 318.99 1041.96 363.78 1047.2 363.78 1047.2 327.56"/>
      <rect class="st1" x="1103.15" y="318.99" width="5.5" height="44.79"/>
      <path class="st0" d="M1131.88,350.03c.08,4.31,1.63,7.71,4.65,10.2,3.02,2.49,7.04,3.76,12.05,3.81,4.83-.02,8.73-1.09,11.71-3.21,2.98-2.13,4.52-5.21,4.6-9.26-.07-3.32-.99-5.79-2.76-7.42-1.77-1.63-3.96-2.8-6.57-3.49-2.61-.7-5.23-1.31-7.84-1.83-2.61-.52-4.8-1.33-6.57-2.43-1.77-1.1-2.68-2.87-2.76-5.3.04-2.54.94-4.57,2.69-6.1,1.75-1.53,4.12-2.31,7.11-2.35,2.94.04,5.32.88,7.16,2.52,1.83,1.64,2.78,3.87,2.83,6.69h5.3c-.08-4.02-1.52-7.19-4.32-9.53-2.8-2.34-6.48-3.53-11.04-3.58-4.56.03-8.23,1.12-11.01,3.28-2.78,2.16-4.21,5.2-4.28,9.13.07,3.23.99,5.63,2.76,7.2,1.77,1.57,3.96,2.7,6.57,3.38,2.61.68,5.23,1.3,7.84,1.84,2.61.55,4.8,1.41,6.57,2.58,1.77,1.17,2.69,3.04,2.76,5.6-.05,2.59-1.04,4.63-2.99,6.11-1.95,1.49-4.58,2.24-7.89,2.27-3.33-.04-6.03-.95-8.12-2.73-2.08-1.78-3.15-4.25-3.22-7.38h-5.24Z"/>
      <polygon class="st0" points="1217.71 363.78 1223.27 363.78 1223.27 318.99 1217.71 318.99 1217.71 338.83 1194.34 338.83 1194.34 318.99 1188.84 318.99 1188.84 363.78 1194.34 363.78 1194.34 342.66 1217.71 342.66 1217.71 363.78"/>
      <polygon class="st0" points="1248.94 363.78 1278.18 363.78 1278.18 359.95 1254.43 359.95 1254.43 342.66 1275.62 342.66 1275.62 338.83 1254.43 338.83 1254.43 322.82 1277.86 322.82 1277.86 318.99 1248.94 318.99 1248.94 363.78"/>
      <path class="st0" d="M1298.98,350.03c.08,4.31,1.63,7.71,4.65,10.2,3.02,2.49,7.04,3.76,12.05,3.81,4.83-.02,8.73-1.09,11.71-3.21,2.98-2.13,4.52-5.21,4.6-9.26-.07-3.32-.99-5.79-2.76-7.42-1.77-1.63-3.96-2.8-6.57-3.49-2.61-.7-5.23-1.31-7.84-1.83-2.61-.52-4.8-1.33-6.57-2.43-1.77-1.1-2.68-2.87-2.76-5.3.04-2.54.94-4.57,2.69-6.1s4.12-2.31,7.11-2.35c2.94.04,5.32.88,7.16,2.52,1.83,1.64,2.78,3.87,2.83,6.69h5.3c-.08-4.02-1.52-7.19-4.32-9.53s-6.48-3.53-11.04-3.58c-4.56.03-8.23,1.12-11.01,3.28-2.78,2.16-4.21,5.2-4.28,9.13.07,3.23.99,5.63,2.76,7.2,1.77,1.57,3.96,2.7,6.57,3.38s5.23,1.3,7.84,1.84c2.61.55,4.8,1.41,6.57,2.58,1.77,1.17,2.69,3.04,2.76,5.6-.05,2.59-1.04,4.63-2.99,6.11-1.95,1.49-4.58,2.24-7.89,2.27-3.33-.04-6.03-.95-8.12-2.73-2.08-1.78-3.15-4.25-3.22-7.38h-5.24Z"/>
    </g>
    <g>
      <path class="st0" d="M51.26,348.99c-1.45-1.33-2.76-3.53-2.71-7.11v-36s-9.71-7.5-12.55-17.58v75.95s75.96,0,75.96,0c-10.08-2.84-17.58-12.55-17.58-12.55h-36c-3.59.05-5.78-1.26-7.11-2.71Z"/>
      <path class="st0" d="M150.43,249.83h0s51.83,0,51.83,0h51.83s0,0,0,0h0v-51.83s0-51.83,0-51.83h0s-51.83,0-51.83,0h-51.83s0,0,0,0h0v51.83s0,51.83,0,51.83h0ZM202.26,238.66l-40.63-.03-.03-40.63.03-40.64,40.63-.03,40.64.03.03,40.64-.03,40.63-40.64.03Z"/>
      <path class="st0" d="M51.26,47.01c1.33-1.45,3.53-2.76,7.11-2.71h36s7.5-9.71,17.58-12.55H36s0,75.96,0,75.96c2.84-10.08,12.55-17.58,12.55-17.58v-36c-.05-3.59,1.26-5.78,2.71-7.11Z"/>
      <path class="st0" d="M353.25,47.01c1.45,1.33,2.76,3.53,2.71,7.11v36s9.71,7.5,12.55,17.58V31.75s-75.96,0-75.96,0c10.08,2.84,17.58,12.55,17.58,12.55h36c3.59-.05,5.78,1.26,7.11,2.71Z"/>
      <path class="st0" d="M353.25,348.99c-1.33,1.45-3.53,2.76-7.11,2.71h-36s-7.5,9.71-17.58,12.55h75.95s0-75.96,0-75.96c-2.84,10.08-12.55,17.58-12.55,17.58v36c.05,3.59-1.26,5.78-2.71,7.11Z"/>
      <path class="st0" d="M68.55,331.71h20.25c10.36,20.26,27.77,32.38,54.17,32.33h34.97c14.24.05,21.15-7.2,24.33-10.82,3.18,3.62,10.09,10.86,24.33,10.82h34.97c26.4.05,43.81-12.07,54.17-32.33h20.25v-20.25c20.26-10.36,32.38-27.77,32.33-54.17v-34.97c.05-14.24-7.2-21.15-10.82-24.33,3.62-3.18,10.86-10.09,10.82-24.33v-34.97c.05-26.4-12.07-43.81-32.33-54.17v-20.25h-20.25c-10.36-20.26-27.77-32.38-54.17-32.33h-34.97c-14.24-.05-21.15,7.2-24.33,10.82-3.18-3.62-10.09-10.86-24.33-10.82h-34.97c-26.4-.05-43.81,12.07-54.17,32.33h-20.25v20.25c-20.26,10.36-32.38,27.77-32.33,54.17v34.97c-.05,14.24,7.2,21.15,10.82,24.33-3.62,3.18-10.86,10.09-10.82,24.33v34.97c-.05,26.4,12.07,43.81,32.33,54.17v20.25ZM202.26,323.76l-26.89-26.31h-23.31l-11.34,11.1v23.17l10.36,9.71,14.56.1c7.04.03,11.94-.08,12.95-4.75,2.27-14.93-10.36-11.71-10.36-11.71-1.38,1.32-2.95,2.04-4.85,2.19-4.36.36-8.19-2.89-8.55-7.25-.36-4.36,1.38-8.48,7.25-8.55l7.01-.11,26.74,27.11c-4.74,7.54-12.28,13.36-18.87,13.25h-34.95c-18.77.1-30.34-6.57-39.48-19.99h26.86v-31.98l18.63-18.65,29.27-.03,24.97,24.08,24.97-24.08,29.27.03,18.63,18.65v31.98h26.86c-9.14,13.42-20.71,20.09-39.48,19.99h-34.95c-6.59.1-14.13-5.71-18.87-13.25l26.74-27.11,7.01.11c5.88.07,7.61,4.19,7.25,8.55-.36,4.36-4.19,7.61-8.55,7.25-1.9-.16-3.48-.87-4.85-2.19,0,0-12.62-3.21-10.36,11.71,1.01,4.66,5.9,4.78,12.95,4.75l14.56-.1,10.36-9.71v-23.17l-11.34-11.1h-23.31l-26.89,26.31ZM202.26,284.43l-16.24-15.88-43.38.76-25.29,25.35v24.74s-36.48,0-36.48,0v-36.49s24.74,0,24.74,0l25.35-25.29.76-43.38-15.88-16.24,15.88-16.24-.76-43.38-25.35-25.29h-24.74s0-36.48,0-36.48h36.49s0,24.74,0,24.74l25.29,25.35,43.38.76,16.24-15.88,16.24,15.88,43.38-.76,25.29-25.35v-24.74s36.48,0,36.48,0v36.49s-24.74,0-24.74,0l-25.35,25.29-.76,43.38,15.88,16.24-15.88,16.24.76,43.38,25.35,25.29h24.74s0,36.48,0,36.48h-36.49s0-24.74,0-24.74l-25.29-25.35-43.38-.76-16.24,15.88ZM328.02,198l-26.31,26.89v23.31l11.1,11.34h23.17l9.71-10.36.1-14.56c.03-7.04-.08-11.94-4.75-12.95-14.93-2.27-11.71,10.36-11.71,10.36,1.32,1.37,2.04,2.95,2.19,4.85.36,4.36-2.89,8.19-7.25,8.55-4.36.36-8.48-1.38-8.55-7.25l-.11-7.01,27.11-26.74c7.54,4.74,13.36,12.28,13.25,18.87v34.95c.1,18.77-6.57,30.34-19.99,39.48v-26.86h-31.98l-18.65-18.63-.03-29.27,24.08-24.97-24.08-24.97.03-29.27,18.65-18.63h31.98v-26.86c13.42,9.14,20.09,20.71,19.99,39.48v34.95c.1,6.59-5.71,14.13-13.25,18.87l-27.11-26.74.11-7.01c.07-5.88,4.19-7.61,8.55-7.25,4.36.36,7.61,4.19,7.25,8.55-.16,1.9-.87,3.48-2.19,4.85,0,0-3.21,12.62,11.71,10.36,4.66-1.01,4.78-5.9,4.75-12.95l-.1-14.56-9.71-10.36h-23.17l-11.1,11.34v23.31l26.31,26.89ZM202.26,72.24l26.89,26.31h23.31l11.34-11.1v-23.17l-10.36-9.71-14.56-.1c-7.04-.03-11.94.08-12.95,4.75-2.27,14.93,10.36,11.71,10.36,11.71,1.37-1.32,2.95-2.04,4.85-2.19,4.36-.36,8.19,2.89,8.55,7.25.36,4.36-1.38,8.48-7.25,8.55l-7.01.11-26.74-27.11c4.74-7.54,12.28-13.36,18.87-13.25h34.95c18.77-.1,30.34,6.57,39.48,19.99h-26.86v31.98l-18.63,18.65-29.27.03-24.97-24.08-24.97,24.08-29.27-.03-18.63-18.65v-31.98h-26.86c9.14-13.42,20.71-20.09,39.48-19.99h34.95c6.59-.1,14.13,5.71,18.87,13.25l-26.74,27.11-7.01-.11c-5.88-.07-7.61-4.19-7.25-8.55.36-4.36,4.19-7.61,8.55-7.25,1.9.16,3.48.87,4.85,2.19,0,0,12.62,3.21,10.36-11.71-1.01-4.66-5.9-4.78-12.95-4.75l-14.56.1-10.36,9.71v23.17l11.34,11.1h23.31l26.89-26.31ZM76.5,198l26.31-26.89v-23.31l-11.1-11.34h-23.17l-9.71,10.36-.1,14.56c-.03,7.04.08,11.94,4.75,12.95,14.93,2.27,11.71-10.36,11.71-10.36-1.32-1.37-2.04-2.95-2.19-4.85-.36-4.36,2.89-8.19,7.25-8.55,4.36-.36,8.48,1.38,8.55,7.25l.11,7.01-27.11,26.74c-7.54-4.74-13.36-12.28-13.25-18.87v-34.95c-.1-18.77,6.57-30.34,19.99-39.48v26.86h31.98l18.65,18.63.03,29.27-24.08,24.97,24.08,24.97-.03,29.27-18.65,18.63h-31.98v26.86c-13.42-9.14-20.09-20.71-19.99-39.48v-34.95c-.1-6.59,5.71-14.13,13.25-18.87l27.11,26.74-.11,7.01c-.07,5.88-4.19,7.61-8.55,7.25-4.36-.36-7.61-4.19-7.25-8.55.16-1.9.87-3.48,2.19-4.85,0,0,3.21-12.62-11.71-10.36-4.66,1.01-4.78,5.9-4.75,12.95l.1,14.56,9.71,10.36h23.17l11.1-11.34v-23.31l-26.31-26.89Z"/>
    </g>
  </g>
  <rect class="st2" width="1368" height="396"/>
</svg>